# xmcd
#
# Track frame offsets:
# 150
# 19862
# 37090
# 57916
# 74183
# 91657
# 109505
# 129436
# 154064
# 175303
# 192459
#
# Disc length: 2799 seconds
#
# Revision: 1
# Processed by: cddbd v1.5.2PL0 Copyright (c) Steve Scherf et al.
# Submitted via: CedeCatalogueitor 2.6.0.6 http://personales.ya.com/cdcatalogueitor
#
DISCID=970aed0b
DTITLE=Astradyne - Origen
DYEAR=1900
DGENRE=
TTITLE0=La Declaración De Mi Traición
TTITLE1=Así Me Verás
TTITLE2=Mi últma Danza
TTITLE3=El Olvido
TTITLE4=Respira
TTITLE5=Quan Vaig
TTITLE6=Si Us Plau...
TTITLE7=Astros Musicales
TTITLE8=El Extranjero De Camus
TTITLE9=Miedo Al Desconocido
TTITLE10=Reir
EXTD=
EXTT0=
EXTT1=
EXTT2=
EXTT3=
EXTT4=
EXTT5=
EXTT6=
EXTT7=
EXTT8=
EXTT9=
EXTT10=
PLAYORDER=
